<svg version="1.2" xmlns="http://www.w3.org/2000/svg" viewBox="0 0 32 40" width="32" height="40"><style>.a{fill:#464646}</style><path fill-rule="evenodd" class="a" d="m25.8 37.2c0 0 0.4-2.3-2.3-5.2 2.6-6.4 3-12.3 3-12.3 0 0 5.5 1.1 5.5 5.8 0 8-6.2 11.7-6.2 11.7zm-15.1-2.8c0 0-3.7-10.2-3.7-14.4 0-1.9 0.2-3.6 0.6-5.2h16.8c0.3 1.6 0.6 3.3 0.6 5.2 0 4.1-3.7 14.4-3.7 14.4zm5.4-17.2c-1.9 0-3.5 1.3-3.5 2.9 0 1.6 1.6 2.9 3.5 2.9 1.8 0 3.4-1.3 3.4-2.9 0-1.6-1.6-2.9-3.4-2.9zm-0.8-13.2v-4h1.3v3.9c1.6 1 5.7 4 7.5 9.8h-16.1c1.8-5.6 5.7-8.6 7.3-9.7zm-9 33.2c0 0-6.2-3.7-6.2-11.7 0-4.7 5.4-5.8 5.4-5.8 0 0 0.4 5.9 3.1 12.3-2.8 2.9-2.3 5.2-2.3 5.2zm12 0.6l-1.1-1-1.2 3.2-1.4-3.2-1 1.7-1.4-3h7.7z"/></svg>